<svg width="218" height="116" viewBox="0 0 218 116" fill="none" xmlns="http://www.w3.org/2000/svg">
<path d="M28.1402 69.4001L1.14021 69.4023L10.1402 1.00229L82.1402 1.00006L50.6402 46.6001H64.1402L23.6402 115L28.1402 69.4001Z" fill="#0F1100" stroke="#D3FF93" stroke-opacity="0.4" stroke-width="2"/>
<path d="M88.993 52.5412C82.4538 52.5412 78.6657 50.106 77.6284 45.2355L84.4269 44.3899C84.9229 46.4418 86.5577 47.4678 89.3312 47.4678C92.2625 47.4678 93.7282 46.5546 93.7282 44.7281C93.7282 44.0066 93.4576 43.4428 92.9164 43.037C92.3753 42.6311 91.462 42.3041 90.1768 42.0561L86.4901 41.3458C83.7842 40.8046 81.7548 39.9027 80.4019 38.64C79.049 37.3547 78.3725 35.6297 78.3725 33.465C78.3725 30.872 79.3083 28.8989 81.1798 27.546C83.0739 26.1706 85.8023 25.4828 89.365 25.4828C92.5218 25.4828 94.9909 26.0353 96.7722 27.1401C98.5536 28.245 99.7599 29.9475 100.391 32.2474L93.7958 33.0592C93.187 31.2778 91.6762 30.3872 89.2635 30.3872C86.6704 30.3872 85.3739 31.2102 85.3739 32.8562C85.3739 33.5327 85.5994 34.04 86.0504 34.3783C86.5013 34.7165 87.3131 35.0096 88.4856 35.2577L91.4959 35.9003C94.7654 36.5317 97.1218 37.4562 98.5649 38.6738C100.031 39.8914 100.763 41.5938 100.763 43.7811C100.763 46.5546 99.7261 48.708 97.6516 50.2413C95.5997 51.7746 92.7135 52.5412 88.993 52.5412ZM116.202 52.5412C112.685 52.5412 109.9 51.6957 107.848 50.0045C105.773 48.3134 104.736 45.8555 104.736 42.6311V26.024H112.042V42.3267C112.042 45.1002 113.429 46.4869 116.202 46.4869C118.976 46.4869 120.362 45.1002 120.362 42.3267V26.024H127.634V42.6311C127.634 45.8555 126.631 48.3134 124.624 50.0045C122.64 51.6957 119.833 52.5412 116.202 52.5412ZM132.614 26.024H144.147C147.327 26.024 149.807 26.8357 151.589 28.4592C153.37 30.0827 154.261 32.2925 154.261 35.0886C154.261 37.8169 153.359 39.9929 151.555 41.6164C149.728 43.2399 147.203 44.0517 143.978 44.0517H139.514V52.0001H132.614V26.024ZM139.514 38.5047H143.539C144.666 38.5047 145.534 38.2115 146.143 37.6253C146.774 37.0165 147.09 36.1709 147.09 35.0886C147.09 32.8337 145.906 31.7063 143.539 31.7063H139.514V38.5047ZM177.903 26.024V31.8415H164.881V35.9341H176.719V41.4811H164.881V46.1825H177.903V52.0001H157.981V26.024H177.903ZM203.469 44.4914L204.788 52.0001H198.227L197.449 46.3178C197.246 44.7845 196.885 43.7585 196.366 43.2399C195.848 42.7438 194.901 42.4958 193.525 42.4958H188.993V52.0001H182.093V26.024H196.705C199.14 26.024 201.023 26.6103 202.353 27.7828C203.706 28.9553 204.383 30.5901 204.383 32.6871C204.383 36.0018 202.455 38.2566 198.599 39.4517C201.372 39.9929 202.996 41.6728 203.469 44.4914ZM188.993 37.1518H192.917C194.292 37.1518 195.341 36.8812 196.062 36.34C196.806 35.7988 197.178 35.0096 197.178 33.9724C197.178 32.2587 195.994 31.4018 193.627 31.4018H188.993V37.1518ZM106.446 72.5002L109.625 58.024H116.626L109.659 84.0001H101L96.5017 64.6533L92.4767 84.0001H83.7842L76.8505 58.024H83.8519L87.065 72.5002L88.2489 79.1972L89.3312 72.5002L92.24 58.024H101.203L104.146 72.5002L105.228 79.2648L106.446 72.5002ZM143.407 84.0001H136L134.85 80.1104H124.838L123.688 84.0001H116.619L125.244 58.024H134.41L143.407 84.0001ZM129.032 65.668L126.326 74.9017H133.294L130.554 65.668L129.81 62.6239L129.032 65.668ZM142.302 58.024H164.523V63.8415H156.846V84.0001H149.946V63.8415H142.302V58.024ZM188.406 58.024V63.8415H175.385V67.9341H187.223V73.4811H175.385V78.1825H188.406V84.0001H168.485V58.024H188.406ZM213.973 76.4914L215.292 84.0001H208.73L207.952 78.3178C207.75 76.7845 207.389 75.7585 206.87 75.2399C206.351 74.7438 205.404 74.4958 204.029 74.4958H199.497V84.0001H192.597V58.024H207.208C209.644 58.024 211.526 58.6103 212.857 59.7828C214.21 60.9553 214.886 62.5901 214.886 64.6871C214.886 68.0018 212.958 70.2566 209.102 71.4517C211.876 71.9929 213.499 73.6728 213.973 76.4914ZM199.497 69.1518H203.42C204.796 69.1518 205.844 68.8812 206.566 68.34C207.31 67.7988 207.682 67.0096 207.682 65.9724C207.682 64.2587 206.498 63.4018 204.13 63.4018H199.497V69.1518Z" fill="white"/>
</svg>
