<svg width="78" height="80" viewBox="0 0 78 80" fill="none" xmlns="http://www.w3.org/2000/svg">
<mask id="path-1-inside-1_1_85" fill="white">
<path d="M0.00195227 60.3496C-0.0420849 58.8939 0.664107 57.3056 1.67871 56.291C2.60524 55.3647 4.36991 54.4829 5.7373 54.6152C7.98705 54.8358 10.2813 54.8358 12.5752 54.6152C14.5603 54.2623 16.5016 53.7763 18.3984 53.0264C20.207 52.2323 21.8837 51.2182 23.4717 50.0713C25.2362 48.6155 26.8245 46.9833 28.2803 45.2187C28.4126 44.9541 28.6331 44.6883 28.8096 44.4678C30.5299 42.0416 31.9857 39.4391 33.1768 36.7041C33.5738 35.7777 33.9265 34.8512 34.2353 33.9248C32.0737 33.0866 29.868 32.2486 27.6182 31.8516C27.0005 31.7633 26.3385 31.8074 25.6768 31.8516C24.4858 32.0721 23.3391 32.3812 22.2363 32.8223C20.8247 33.5281 19.501 34.3217 18.2217 35.248C18.0893 35.3363 17.9126 35.4692 17.7803 35.6016C17.0745 36.3072 16.236 36.792 15.2656 37.0566C14.7363 37.1449 14.251 37.1891 13.7217 37.2773C12.1777 37.3655 10.7659 36.6161 9.66308 35.6016C8.60431 34.631 7.9873 32.9096 7.9873 31.542C7.98745 30.1746 8.60463 28.3667 9.66308 27.4844C11.3836 26.0727 13.1927 24.6603 15.1338 23.6016C17.3836 22.3664 19.8537 21.3515 22.3682 20.8662C23.868 20.5574 25.4121 20.3369 26.9561 20.3369C28.0588 20.381 29.1619 20.5579 30.2646 20.7344C32.5586 21.1314 34.809 21.9694 36.9707 22.8076C41.3381 24.484 45.5736 26.4248 49.8086 28.4541C52.2348 29.6452 54.6167 30.8807 57.043 31.9395C58.4546 32.4688 59.8664 32.9101 61.3662 33.1748C63.0867 33.3513 64.8078 33.3513 66.5283 33.1748C67.8516 32.9542 69.1749 32.645 70.4541 32.248C71.954 31.7628 73.5427 32.1164 74.8662 32.8223C76.1894 33.5282 77.0716 34.8953 77.5127 36.2627L77.6006 36.3066C78.0417 37.6742 77.7332 39.4835 77.0273 40.7187C76.2774 41.9979 74.9984 42.924 73.5869 43.3652C72.3076 43.7623 71.0274 44.0714 69.748 44.292C67.5867 44.6449 65.4252 44.9093 63.2197 44.8652C60.9258 44.8211 58.5875 44.5121 56.3818 43.8945C54.3084 43.2769 52.3669 42.395 50.4258 41.5127C48.4847 40.6304 46.5874 39.7038 44.6904 38.7773C44.2493 39.9243 43.7646 41.1157 43.2793 42.2627C43.0146 42.8361 42.75 43.4099 42.4853 43.9834C42.8381 44.1157 43.1913 44.2036 43.5 44.3359C45.3968 45.0417 47.2495 45.8357 48.9258 46.9385C50.7345 48.1296 52.4991 49.4976 53.999 51.1299C55.6312 52.8944 57.1317 54.9234 58.1904 57.085C61.0579 62.8199 61.9401 69.5257 60.4844 75.79C60.1315 77.29 59.0721 78.4374 57.8369 79.2314C56.5576 80.0694 54.8815 80.1576 53.4258 79.8047C52.0583 79.4959 50.6903 78.3493 49.9844 77.1582C49.1903 75.8347 49.0582 74.246 49.4111 72.7461C49.4993 72.4815 49.5438 72.1728 49.5879 71.9082C49.7202 70.3643 49.7202 68.8203 49.5879 67.2764C49.3232 65.8648 48.9696 64.5411 48.4844 63.2178C47.9109 62.0709 47.2938 60.9677 46.5439 59.9531C45.7499 59.0267 44.911 58.1437 43.9404 57.3496C42.8818 56.5557 41.7348 55.9386 40.5439 55.3652C39.0881 54.7917 37.544 54.3946 36 54.1299L35.7793 54.1299C34.456 55.6737 33.0001 57.085 31.4121 58.3643C29.5593 59.82 27.6184 61.2321 25.501 62.335C23.6923 63.2614 21.7508 64.0992 19.7656 64.7168C17.56 65.4226 15.3544 65.7763 13.0605 66.041C10.6343 66.3498 8.16352 66.3496 5.7373 66.085C4.67856 66.085 3.70749 65.8204 2.82519 65.291C2.47232 65.0264 2.0757 64.717 1.67871 64.4082C0.575825 63.3494 0.0901832 61.8495 0.00195227 60.3496ZM36.4268 11.6904C36.4269 5.23415 41.6609 0.000143137 48.1172 -2.10327e-06C54.5736 -2.38549e-06 59.8074 5.23406 59.8076 11.6904C59.8076 18.147 54.5737 23.3818 48.1172 23.3818C41.6608 23.3817 36.4268 18.1469 36.4268 11.6904Z"/>
</mask>
<path d="M0.00195227 60.3496L-1.99713 60.4101L-1.99627 60.4386L-1.9946 60.4671L0.00195227 60.3496ZM1.67871 56.291L0.264679 54.8766L0.264496 54.8768L1.67871 56.291ZM5.7373 54.6152L5.93242 52.6248L5.92995 52.6245L5.7373 54.6152ZM12.5752 54.6152L12.7666 56.6061L12.8464 56.5984L12.9253 56.5844L12.5752 54.6152ZM18.3984 53.0264L19.1338 54.8863L19.1684 54.8726L19.2025 54.8576L18.3984 53.0264ZM23.4717 50.0713L24.6427 51.6926L24.6948 51.655L24.7445 51.614L23.4717 50.0713ZM28.2803 45.2187L29.823 46.4915L29.9676 46.3163L30.0691 46.1132L28.2803 45.2187ZM28.8096 44.4678L30.3713 45.7172L30.4075 45.6719L30.441 45.6246L28.8096 44.4678ZM33.1768 36.7041L35.0105 37.5026L35.015 37.4919L33.1768 36.7041ZM34.2353 33.9248L36.1327 34.5573L36.7354 32.7491L34.9584 32.0601L34.2353 33.9248ZM27.6182 31.8516L27.9657 29.882L27.9335 29.8763L27.901 29.8717L27.6182 31.8516ZM25.6768 31.8516L25.5437 29.856L25.4273 29.8638L25.3126 29.885L25.6768 31.8516ZM22.2363 32.8223L21.4936 30.9653L21.4163 30.9962L21.3419 31.0334L22.2363 32.8223ZM18.2217 35.248L19.3311 36.9121L19.3633 36.8907L19.3947 36.8679L18.2217 35.248ZM17.7803 35.6016L19.1944 37.0159L19.1945 37.0158L17.7803 35.6016ZM15.2656 37.0566L15.5944 39.0294L15.6942 39.0128L15.7919 38.9862L15.2656 37.0566ZM13.7217 37.2773L13.8357 39.2741L13.9438 39.2679L14.0505 39.2501L13.7217 37.2773ZM9.66308 35.6016L11.0172 34.1297L11.0145 34.1273L9.66308 35.6016ZM7.9873 31.542L5.9873 31.5418L5.9873 31.542L7.9873 31.542ZM9.66308 27.4844L8.39445 25.9382L8.38845 25.9431L8.38249 25.9481L9.66308 27.4844ZM15.1338 23.6016L16.0915 25.3574L16.0963 25.3547L15.1338 23.6016ZM22.3682 20.8662L22.7471 22.83L22.7593 22.8276L22.7715 22.8251L22.3682 20.8662ZM26.9561 20.3369L27.036 18.3385L26.996 18.3369L26.956 18.3369L26.9561 20.3369ZM30.2646 20.7344L30.6057 18.7637L30.5932 18.7615L30.5806 18.7595L30.2646 20.7344ZM36.9707 22.8076L36.2476 24.6724L36.254 24.6748L36.9707 22.8076ZM49.8086 28.4541L50.6899 26.6588L50.6814 26.6546L50.6728 26.6505L49.8086 28.4541ZM57.043 31.9395L56.2431 33.7725L56.2914 33.7936L56.3407 33.8121L57.043 31.9395ZM61.3662 33.1748L61.0186 35.1444L61.09 35.157L61.1621 35.1644L61.3662 33.1748ZM66.5283 33.1748L66.7324 35.1644L66.795 35.1579L66.8571 35.1476L66.5283 33.1748ZM70.4541 32.248L71.0469 34.1582L71.0583 34.1546L71.0697 34.1509L70.4541 32.248ZM74.8662 32.8223L75.8076 31.0577L75.8074 31.0576L74.8662 32.8223ZM77.5127 36.2627L75.6093 36.8767L75.8671 37.676L76.6183 38.0515L77.5127 36.2627ZM77.6006 36.3066L79.504 35.6926L79.2462 34.8934L78.495 34.5178L77.6006 36.3066ZM77.0273 40.7187L78.7527 41.7303L78.7583 41.7207L78.7638 41.711L77.0273 40.7187ZM73.5869 43.3652L74.1797 45.2754L74.1836 45.2741L73.5869 43.3652ZM69.748 44.292L70.0703 46.2659L70.0791 46.2644L70.0879 46.2629L69.748 44.292ZM63.2197 44.8652L63.2597 42.8656L63.2582 42.8656L63.2197 44.8652ZM56.3818 43.8945L55.8109 45.8113L55.8267 45.816L55.8426 45.8205L56.3818 43.8945ZM50.4258 41.5127L49.5982 43.3334L50.4258 41.5127ZM44.6904 38.7773L45.5681 36.9802L43.6071 36.0225L42.8237 38.0594L44.6904 38.7773ZM43.2793 42.2627L45.0952 43.1008L45.1087 43.0716L45.1212 43.042L43.2793 42.2627ZM42.4853 43.9834L40.6694 43.1453L39.7671 45.1003L41.7833 45.8561L42.4853 43.9834ZM43.5 44.3359L42.7122 46.1742L42.7569 46.1934L42.8025 46.2104L43.5 44.3359ZM48.9258 46.9385L50.0258 45.2681L50.025 45.2676L48.9258 46.9385ZM53.999 51.1299L52.5264 52.4831L52.5308 52.488L53.999 51.1299ZM58.1904 57.085L56.3943 57.9647L56.3979 57.9721L56.4016 57.9794L58.1904 57.085ZM60.4844 75.79L62.4312 76.2481L62.4325 76.2427L60.4844 75.79ZM57.8369 79.2314L56.7554 77.5491L56.7482 77.5537L56.741 77.5584L57.8369 79.2314ZM53.4258 79.8047L53.897 77.861L53.8817 77.8573L53.8663 77.8538L53.4258 79.8047ZM49.9844 77.1582L51.7049 76.1385L51.6994 76.1292L49.9844 77.1582ZM49.4111 72.7461L47.5137 72.1138L47.4851 72.1998L47.4643 72.288L49.4111 72.7461ZM49.5879 71.9082L51.5607 72.237L51.5738 72.1584L51.5806 72.079L49.5879 71.9082ZM49.5879 67.2764L51.5806 67.1056L51.5721 67.006L51.5536 66.9078L49.5879 67.2764ZM48.4844 63.2178L50.3621 62.5293L50.3235 62.4238L50.2732 62.3233L48.4844 63.2178ZM46.5439 59.9531L48.1523 58.7644L48.1094 58.7063L48.0625 58.6515L46.5439 59.9531ZM43.9404 57.3496L45.2069 55.8017L45.1742 55.7749L45.1404 55.7496L43.9404 57.3496ZM40.5439 55.3652L41.4116 53.5632L41.3454 53.5314L41.277 53.5044L40.5439 55.3652ZM36 54.1299L36.3379 52.1586L36.1702 52.1299L36 52.1299L36 54.1299ZM35.7793 54.1299L35.7793 52.1299L34.8594 52.1299L34.2608 52.8283L35.7793 54.1299ZM31.4121 58.3643L32.6477 59.9369L32.6573 59.9294L32.6668 59.9218L31.4121 58.3643ZM25.501 62.335L26.4127 64.1151L26.4249 64.1088L25.501 62.335ZM19.7656 64.7168L19.1715 62.8071L19.1638 62.8095L19.1561 62.8119L19.7656 64.7168ZM13.0605 66.041L12.8313 64.0542L12.8197 64.0555L12.808 64.057L13.0605 66.041ZM5.7373 66.085L5.95418 64.0968L5.84606 64.085L5.7373 64.085L5.7373 66.085ZM2.82519 65.291L1.62519 66.891L1.70774 66.9529L1.79623 67.006L2.82519 65.291ZM1.67871 64.4082L0.293647 65.851L0.368702 65.923L0.450829 65.9869L1.67871 64.4082ZM36.4268 11.6904L34.4268 11.6904L34.4268 11.6904L36.4268 11.6904ZM48.1172 -2.10327e-06L48.1172 -2L48.1171 -2L48.1172 -2.10327e-06ZM59.8076 11.6904L61.8076 11.6904L61.8076 11.6904L59.8076 11.6904ZM48.1172 23.3818L48.1171 25.3818L48.1172 25.3818L48.1172 23.3818ZM0.00195227 60.3496L2.00104 60.2891C1.97554 59.4461 2.42245 58.3757 3.09292 57.7052L1.67871 56.291L0.264496 54.8768C-1.09423 56.2355 -2.05971 58.3416 -1.99713 60.4101L0.00195227 60.3496ZM1.67871 56.291L3.09274 57.7054C3.3568 57.4414 3.81373 57.1215 4.34694 56.8873C4.89766 56.6454 5.32376 56.5846 5.54466 56.6059L5.7373 54.6152L5.92995 52.6245C4.78345 52.5136 3.64352 52.8275 2.73843 53.225C1.81582 53.6302 0.927146 54.2143 0.264679 54.8766L1.67871 56.291ZM5.7373 54.6152L5.54219 56.6057C7.92292 56.8391 10.3467 56.8387 12.7666 56.6061L12.5752 54.6152L12.3838 52.6244C10.216 52.8329 8.05118 52.8325 5.93242 52.6248L5.7373 54.6152ZM12.5752 54.6152L12.9253 56.5844C14.9993 56.2156 17.0777 55.6992 19.1338 54.8863L18.3984 53.0264L17.6631 51.1664C15.9255 51.8534 14.1212 52.309 12.2251 52.6461L12.5752 54.6152ZM18.3984 53.0264L19.2025 54.8576C21.1682 53.9946 22.9676 52.9024 24.6427 51.6926L23.4717 50.0713L22.3007 48.4499C20.7997 49.534 19.2458 50.47 17.5944 51.1951L18.3984 53.0264ZM23.4717 50.0713L24.7445 51.614C26.621 50.0659 28.2981 48.3398 29.823 46.4915L28.2803 45.2187L26.7375 43.946C25.3509 45.6267 23.8514 47.1652 22.1989 48.5285L23.4717 50.0713ZM28.2803 45.2187L30.0691 46.1132C30.0624 46.1266 30.0758 46.0981 30.138 46.0138C30.2017 45.9275 30.2662 45.8486 30.3713 45.7172L28.8096 44.4678L27.2478 43.2184C27.129 43.367 26.7413 43.8245 26.4914 44.3243L28.2803 45.2187ZM28.8096 44.4678L30.441 45.6246C32.2439 43.082 33.7666 40.3588 35.0104 37.5026L33.1768 36.7041L31.3431 35.9056C30.2048 38.5193 28.8159 41.0011 27.1781 43.3109L28.8096 44.4678ZM33.1768 36.7041L35.015 37.4919C35.4333 36.516 35.8059 35.5377 36.1327 34.5573L34.2353 33.9248L32.338 33.2923C32.0472 34.1647 31.7143 35.0394 31.3385 35.9163L33.1768 36.7041ZM34.2353 33.9248L34.9584 32.0601C32.8188 31.2304 30.4373 30.3182 27.9657 29.882L27.6182 31.8516L27.2706 33.8211C29.2987 34.179 31.3287 34.9428 33.5123 35.7895L34.2353 33.9248ZM27.6182 31.8516L27.901 29.8717C27.0386 29.7485 26.1601 29.8149 25.5437 29.856L25.6768 31.8516L25.8098 33.8471C26.5169 33.8 26.9625 33.7782 27.3353 33.8315L27.6182 31.8516ZM25.6768 31.8516L25.3126 29.885C24.019 30.1246 22.7416 30.4661 21.4936 30.9653L22.2363 32.8223L22.9791 34.6792C23.9365 34.2963 24.9525 34.0197 26.041 33.8181L25.6768 31.8516ZM22.2363 32.8223L21.3419 31.0334C19.8391 31.7848 18.4215 32.6341 17.0487 33.6282L18.2217 35.248L19.3947 36.8679C20.5805 36.0093 21.8103 35.2714 23.1308 34.6111L22.2363 32.8223ZM18.2217 35.248L17.1123 33.5839C16.9193 33.7126 16.6255 33.9279 16.3661 34.1873L17.7803 35.6016L19.1945 37.0158C19.1896 37.0207 19.191 37.0189 19.2003 37.0108C19.2092 37.003 19.2218 36.9925 19.2379 36.9799C19.2713 36.9536 19.3059 36.929 19.3311 36.9121L18.2217 35.248ZM17.7803 35.6016L16.3662 34.1872C15.909 34.6443 15.3776 34.9531 14.7394 35.1271L15.2656 37.0566L15.7919 38.9862C17.0945 38.6309 18.2399 37.9702 19.1944 37.0159L17.7803 35.6016ZM15.2656 37.0566L14.9369 35.0838C14.7124 35.1213 14.4929 35.1501 14.2347 35.1838C13.9856 35.2163 13.6977 35.2537 13.3929 35.3046L13.7217 37.2773L14.0505 39.2501C14.2749 39.2127 14.4944 39.1839 14.7526 39.1502C15.0017 39.1176 15.2895 39.0802 15.5944 39.0294L15.2656 37.0566ZM13.7217 37.2773L13.6076 35.2806C12.7988 35.3268 11.893 34.9354 11.0172 34.1297L9.66308 35.6016L8.309 37.0735C9.63886 38.2969 11.5566 39.4043 13.8357 39.2741L13.7217 37.2773ZM9.66308 35.6016L11.0145 34.1273C10.4448 33.605 9.9873 32.4608 9.9873 31.542L7.9873 31.542L5.9873 31.542C5.9873 33.3584 6.76381 35.657 8.31164 37.0759L9.66308 35.6016ZM7.9873 31.542L9.9873 31.5422C9.98735 31.132 10.0858 30.5846 10.2911 30.0595C10.5021 29.5196 10.7576 29.1757 10.9437 29.0206L9.66308 27.4844L8.38249 25.9481C7.51008 26.6753 6.92779 27.6766 6.5656 28.6031C6.19764 29.5444 5.9874 30.5845 5.9873 31.5418L7.9873 31.542ZM9.66308 27.4844L10.9317 29.0305C12.6431 27.6263 14.3283 26.3191 16.0915 25.3574L15.1338 23.6016L14.1761 21.8458C12.0571 23.0016 10.1241 24.519 8.39445 25.9382L9.66308 27.4844ZM15.1338 23.6016L16.0963 25.3547C18.2205 24.1885 20.4921 23.2652 22.7471 22.83L22.3682 20.8662L21.9892 18.9024C19.2153 19.4378 16.5466 20.5443 14.1713 21.8484L15.1338 23.6016ZM22.3682 20.8662L22.7715 22.8251C24.1967 22.5317 25.5963 22.3369 26.9561 22.3369L26.9561 20.3369L26.956 18.3369C25.228 18.337 23.5393 18.5832 21.9649 18.9073L22.3682 20.8662ZM26.9561 20.3369L26.8761 22.3353C27.8397 22.3739 28.8244 22.5294 29.9487 22.7093L30.2646 20.7344L30.5806 18.7595C29.4994 18.5865 28.2779 18.3882 27.036 18.3385L26.9561 20.3369ZM30.2646 20.7344L29.9236 22.7051C31.9971 23.064 34.0766 23.8305 36.2476 24.6723L36.9707 22.8076L37.6938 20.9429C35.5415 20.1083 33.1202 19.1989 30.6057 18.7637L30.2646 20.7344ZM36.9707 22.8076L36.254 24.6748C40.5468 26.3225 44.7259 28.2364 48.9444 30.2577L49.8086 28.4541L50.6728 26.6505C46.4212 24.6132 42.1294 22.6454 37.6874 20.9404L36.9707 22.8076ZM49.8086 28.4541L48.9272 30.2494C51.2997 31.4141 53.762 32.6899 56.2431 33.7725L57.043 31.9395L57.8429 30.1064C55.4715 29.0716 53.17 27.8762 50.6899 26.6588L49.8086 28.4541ZM57.043 31.9395L56.3407 33.8121C57.8187 34.3663 59.3557 34.8509 61.0186 35.1444L61.3662 33.1748L61.7138 31.2052C60.3771 30.9693 59.0904 30.5713 57.7452 30.0668L57.043 31.9395ZM61.3662 33.1748L61.1621 35.1644C63.0183 35.3547 64.8762 35.3547 66.7324 35.1644L66.5283 33.1748L66.3243 31.1852C64.7394 31.3478 63.1551 31.3478 61.5703 31.1852L61.3662 33.1748ZM66.5283 33.1748L66.8571 35.1476C68.265 34.9129 69.6767 34.5834 71.0469 34.1582L70.4541 32.248L69.8613 30.3379C68.6731 30.7067 67.4383 30.9955 66.1995 31.202L66.5283 33.1748ZM70.4541 32.248L71.0697 34.1509C71.8884 33.8861 72.9019 34.0413 73.925 34.587L74.8662 32.8223L75.8074 31.0576C74.1836 30.1915 72.0196 29.6395 69.8385 30.3452L70.4541 32.248ZM74.8662 32.8223L73.9248 34.5869C74.6424 34.9697 75.2673 35.8167 75.6093 36.8767L77.5127 36.2627L79.4161 35.6487C78.8758 33.974 77.7363 32.0866 75.8076 31.0577L74.8662 32.8223ZM77.5127 36.2627L76.6183 38.0515L76.7062 38.0955L77.6006 36.3066L78.495 34.5178L78.4071 34.4738L77.5127 36.2627ZM77.6006 36.3066L75.6972 36.9206C75.9338 37.6542 75.7739 38.8812 75.2909 39.7265L77.0273 40.7187L78.7638 41.711C79.6925 40.0858 80.1497 37.6942 79.504 35.6926L77.6006 36.3066ZM77.0273 40.7187L75.302 39.7072C74.837 40.5004 73.9938 41.1426 72.9902 41.4563L73.5869 43.3652L74.1836 45.2741C76.0029 44.7055 77.7179 43.4953 78.7527 41.7303L77.0273 40.7187ZM73.5869 43.3652L72.9941 41.4551C71.7949 41.8273 70.5992 42.1157 69.4082 42.3211L69.748 44.292L70.0879 46.2629C71.4556 46.0271 72.8202 45.6973 74.1797 45.2754L73.5869 43.3652ZM69.748 44.292L69.4258 42.3181C67.3084 42.6638 65.2858 42.9061 63.2597 42.8656L63.2197 44.8652L63.1798 46.8648C65.5646 46.9125 67.8649 46.6259 70.0703 46.2659L69.748 44.292ZM63.2197 44.8652L63.2582 42.8656C61.1128 42.8243 58.9447 42.5352 56.9211 41.9686L56.3818 43.8945L55.8426 45.8205C58.2304 46.489 60.7389 46.8179 63.1813 46.8649L63.2197 44.8652ZM56.3818 43.8945L56.9528 41.9778C55.0323 41.4057 53.2137 40.583 51.2534 39.692L50.4258 41.5127L49.5982 43.3334C51.52 44.207 53.5845 45.1481 55.8109 45.8113L56.3818 43.8945ZM50.4258 41.5127L51.2534 39.692C49.3417 38.823 47.469 37.9086 45.5681 36.9802L44.6904 38.7773L43.8128 40.5745C45.7057 41.499 47.6278 42.4378 49.5982 43.3334L50.4258 41.5127ZM44.6904 38.7773L42.8237 38.0594C42.3918 39.1824 41.9156 40.3531 41.4374 41.4834L43.2793 42.2627L45.1212 43.042C45.6135 41.8783 46.1067 40.6663 46.5571 39.4953L44.6904 38.7773ZM43.2793 42.2627L41.4634 41.4246C41.331 41.7115 41.1986 41.9984 41.0663 42.2852C40.9339 42.5721 40.8017 42.8587 40.6694 43.1453L42.4853 43.9834L44.3013 44.8215C44.4337 44.5346 44.5661 44.2477 44.6984 43.9609C44.8307 43.674 44.963 43.3874 45.0952 43.1008L43.2793 42.2627ZM42.4853 43.9834L41.7833 45.8561C42.0156 45.9432 42.2502 46.0164 42.3961 46.0634C42.567 46.1184 42.6526 46.1487 42.7122 46.1742L43.5 44.3359L44.2878 42.4976C44.0387 42.3909 43.7934 42.311 43.6223 42.2559C43.4263 42.1928 43.3079 42.1559 43.1874 42.1107L42.4853 43.9834ZM43.5 44.3359L42.8025 46.2104C44.6514 46.8984 46.3385 47.6303 47.8266 48.6093L48.9258 46.9385L50.025 45.2676C48.1606 44.0411 46.1421 43.1851 44.1975 42.4615L43.5 44.3359ZM48.9258 46.9385L47.8258 48.6088C49.5525 49.7459 51.1742 51.0116 52.5264 52.4831L53.999 51.1299L55.4717 49.7766C53.824 47.9836 51.9165 46.5133 50.0258 45.2681L48.9258 46.9385ZM53.999 51.1299L52.5308 52.488C54.0668 54.1485 55.4415 56.0193 56.3943 57.9647L58.1904 57.085L59.9865 56.2052C58.8219 53.8274 57.1957 51.6404 55.4672 49.7718L53.999 51.1299ZM58.1904 57.085L56.4016 57.9794C59.0692 63.3147 59.8823 69.5452 58.5363 75.3373L60.4844 75.79L62.4325 76.2427C63.9979 69.5062 63.0466 62.3251 59.9793 56.1905L58.1904 57.085ZM60.4844 75.79L58.5375 75.332C58.3423 76.1617 57.7219 76.9278 56.7554 77.5491L57.8369 79.2314L58.9184 80.9138C60.4224 79.947 61.9206 78.4182 62.4312 76.2481L60.4844 75.79ZM57.8369 79.2314L56.741 77.5584C56.0658 78.0007 55.0055 78.1297 53.897 77.861L53.4258 79.8047L52.9546 81.7484C54.7574 82.1854 57.0495 82.1381 58.9328 80.9045L57.8369 79.2314ZM53.4258 79.8047L53.8663 77.8538C53.1405 77.6899 52.1904 76.9578 51.7049 76.1385L49.9844 77.1582L48.2638 78.1779C49.1901 79.7407 50.9761 81.3019 52.9853 81.7556L53.4258 79.8047ZM49.9844 77.1582L51.6994 76.1292C51.2264 75.341 51.0984 74.3075 51.358 73.2042L49.4111 72.7461L47.4643 72.288C47.0181 74.1845 47.1542 76.3285 48.2694 78.1872L49.9844 77.1582ZM49.4111 72.7461L51.3085 73.3784C51.4593 72.9259 51.5304 72.4185 51.5607 72.237L49.5879 71.9082L47.6151 71.5794C47.5879 71.7427 47.5735 71.8382 47.5523 71.9482C47.5325 72.0507 47.5187 72.0987 47.5137 72.1138L49.4111 72.7461ZM49.5879 71.9082L51.5806 72.079C51.7227 70.4214 51.7226 68.7631 51.5806 67.1056L49.5879 67.2764L47.5952 67.4471C47.7178 68.8774 47.7178 70.3072 47.5952 71.7374L49.5879 71.9082ZM49.5879 67.2764L51.5536 66.9078C51.2706 65.3981 50.8891 63.9665 50.3621 62.5293L48.4844 63.2178L46.6066 63.9063C47.0501 65.1158 47.3759 66.3315 47.6221 67.6449L49.5879 67.2764ZM48.4844 63.2178L50.2732 62.3233C49.6754 61.1278 48.9993 59.9103 48.1523 58.7644L46.5439 59.9531L44.9356 61.1419C45.5883 62.0251 46.1464 63.014 46.6955 64.1122L48.4844 63.2178ZM46.5439 59.9531L48.0625 58.6515C47.2259 57.6756 46.3017 56.6975 45.2069 55.8017L43.9404 57.3496L42.674 58.8975C43.5202 59.5899 44.2738 60.3778 45.0254 61.2547L46.5439 59.9531ZM43.9404 57.3496L45.1404 55.7496C43.9294 54.8414 42.6482 54.1586 41.4116 53.5632L40.5439 55.3652L39.6763 57.1672C40.8215 57.7186 41.8343 58.2701 42.7405 58.9497L43.9404 57.3496ZM40.5439 55.3652L41.277 53.5044C39.6687 52.8708 37.9878 52.4415 36.3379 52.1586L36 54.1299L35.6621 56.1011C37.1002 56.3477 38.5076 56.7126 39.8109 57.226L40.5439 55.3652ZM36 54.1299L36 52.1299L35.7793 52.1299L35.7793 54.1299L35.7793 56.1299L36 56.1299L36 54.1299ZM35.7793 54.1299L34.2608 52.8283C33.0177 54.2785 31.6502 55.6042 30.1574 56.8068L31.4121 58.3643L32.6668 59.9218C34.3499 58.5659 35.8942 57.069 37.2978 55.4315L35.7793 54.1299ZM31.4121 58.3643L30.1765 56.7916C28.3537 58.2238 26.5283 59.5449 24.5771 60.5611L25.501 62.335L26.4249 64.1088C28.7085 62.9193 30.765 61.4162 32.6477 59.9369L31.4121 58.3643ZM25.501 62.335L24.5892 60.5549C22.8583 61.4414 21.024 62.2307 19.1715 62.8071L19.7656 64.7168L20.3598 66.6265C22.4775 65.9676 24.5263 65.0813 26.4127 64.115L25.501 62.335ZM19.7656 64.7168L19.1561 62.8119C17.1321 63.4596 15.075 63.7953 12.8313 64.0542L13.0605 66.041L13.2898 68.0278C15.6338 67.7574 17.9879 67.3856 20.3752 66.6216L19.7656 64.7168ZM13.0605 66.041L12.808 64.057C10.5493 64.3445 8.23657 64.3457 5.95418 64.0968L5.7373 66.085L5.52043 68.0732C8.09048 68.3535 10.7193 68.3551 13.3131 68.025L13.0605 66.041ZM5.7373 66.085L5.7373 64.085C5.02968 64.085 4.41603 63.9131 3.85416 63.576L2.82519 65.291L1.79623 67.006C2.99894 67.7276 4.32744 68.085 5.7373 68.085L5.7373 66.085ZM2.82519 65.291L4.02519 63.691C3.68975 63.4394 3.30968 63.143 2.90659 62.8295L1.67871 64.4082L0.450829 65.9869C0.84172 66.2909 1.25488 66.6133 1.62519 66.891L2.82519 65.291ZM1.67871 64.4082L3.06377 62.9654C2.44102 62.3676 2.06825 61.4178 1.9985 60.2322L0.00195227 60.3496L-1.9946 60.4671C-1.88788 62.2813 -1.28937 64.3313 0.293647 65.851L1.67871 64.4082ZM36.4268 11.6904L38.4268 11.6905C38.4269 6.33872 42.7655 2.00012 48.1172 2L48.1172 -2.10327e-06L48.1171 -2C40.5563 -1.99983 34.427 4.12958 34.4268 11.6904L36.4268 11.6904ZM48.1172 -2.10327e-06L48.1172 2C53.469 2 57.8075 6.33858 57.8076 11.6905L59.8076 11.6904L61.8076 11.6904C61.8074 4.12954 55.6782 -2 48.1172 -2L48.1172 -2.10327e-06ZM59.8076 11.6904L57.8076 11.6904C57.8076 17.0426 53.4689 21.3818 48.1172 21.3818L48.1172 23.3818L48.1172 25.3818C55.6785 25.3818 61.8076 19.2513 61.8076 11.6904L59.8076 11.6904ZM48.1172 23.3818L48.1172 21.3818C42.7655 21.3817 38.4268 17.0425 38.4268 11.6904L36.4268 11.6904L34.4268 11.6904C34.4268 19.2513 40.556 25.3817 48.1171 25.3818L48.1172 23.3818Z" fill="url(#paint0_linear_1_85)" mask="url(#path-1-inside-1_1_85)"/>
<defs>
<linearGradient id="paint0_linear_1_85" x1="39.1219" y1="27.9999" x2="97.0356" y2="94.1423" gradientUnits="userSpaceOnUse">
<stop stop-color="#E29DFA"/>
<stop offset="1" stop-color="#E22FFF" stop-opacity="0"/>
</linearGradient>
</defs>
</svg>
