<svg width="54" height="82" viewBox="0 0 54 82" fill="none" xmlns="http://www.w3.org/2000/svg">
<mask id="path-1-inside-1_1_77" fill="white">
<path d="M0.056272 26.8418C-0.718577 16.7659 6.74729 9.05605 7.93029 7.87305C15.6811 0.12236 25.3083 -1.10624e-06 26.9401 -1.17756e-06C28.5724 1.40099e-05 38.1581 0.163519 45.8678 7.87304C47.01 9.01526 54.5165 16.7251 53.7008 26.8418C53.456 30.0237 51.2935 34.1848 46.9694 42.4658C43.5836 49.0334 41.8708 52.3383 40.2799 53.6846C33.2634 59.6404 20.4537 59.6404 13.4371 53.6846C11.8462 52.3384 10.1326 49.0336 6.7467 42.4658C2.46348 34.1441 0.301031 30.0237 0.056272 26.8418ZM15.3199 67.4727C11.0368 65.2698 14.7896 58.8247 19.0729 61.0273C23.8458 63.475 29.9242 63.475 34.7379 61.0273C38.9804 58.8246 42.7741 65.2698 38.4908 67.4727C37.9259 67.7647 37.3516 68.0318 36.7711 68.2783C36.9066 68.4411 37.0338 68.6205 37.1481 68.8193C38.0454 70.4103 37.6778 73.1031 35.8014 73.9189C34.5154 74.4804 33.205 74.9164 31.8815 75.2285C32.1651 76.2872 31.9197 77.1832 31.5123 78.1201C30.6965 79.9558 28.9834 81.4248 26.903 81.4248C24.8226 81.4247 23.1094 79.915 22.2936 78.1201L22.1715 78.1201C21.7636 77.1411 21.5596 76.2434 21.8043 75.2236C21.8047 75.2217 21.8049 75.2197 21.8053 75.2178C20.4983 74.9064 19.2044 74.4735 17.9342 73.9189C16.0985 73.1439 15.6494 70.4103 16.5875 68.8193C16.7065 68.6167 16.839 68.4337 16.9801 68.2676C16.4063 68.0242 15.8382 67.7601 15.2789 67.4727L15.3199 67.4727ZM25.1041 36.7549L23.8805 48.2588L27.6744 42.1396L34.0377 31.8594L30.774 31.8594L37.6686 20.7637L20.6988 20.7637L19.067 36.7549L25.1041 36.7549Z"/>
</mask>
<path d="M0.056272 26.8418L-1.93784 26.9951L-1.93784 26.9952L0.056272 26.8418ZM7.93029 7.87305L6.51609 6.45882L6.51608 6.45883L7.93029 7.87305ZM26.9401 -1.17756e-06L26.9401 -2L26.9401 -2L26.9401 -1.17756e-06ZM45.8678 7.87304L47.282 6.45883L47.282 6.45882L45.8678 7.87304ZM53.7008 26.8418L51.7073 26.6811L51.7067 26.6884L53.7008 26.8418ZM46.9694 42.4658L45.1965 41.5401L45.1917 41.5494L46.9694 42.4658ZM40.2799 53.6846L38.9879 52.1579L38.9856 52.1598L40.2799 53.6846ZM13.4371 53.6846L14.7314 52.1598L14.729 52.1578L13.4371 53.6846ZM6.7467 42.4658L4.96843 43.3811L4.96903 43.3823L6.7467 42.4658ZM15.3199 67.4727L15.3199 69.4727L16.2347 65.6941L15.3199 67.4727ZM19.0729 61.0273L18.1582 62.806L18.1602 62.807L19.0729 61.0273ZM34.7379 61.0273L35.6444 62.8101L35.652 62.8063L35.6595 62.8024L34.7379 61.0273ZM38.4908 67.4727L37.5761 65.6941L37.5725 65.6959L38.4908 67.4727ZM36.7711 68.2783L35.9892 66.4375L33.5125 67.4895L35.2339 69.5577L36.7711 68.2783ZM37.1481 68.8193L38.8901 67.8368L38.8862 67.8299L38.8823 67.8231L37.1481 68.8193ZM35.8014 73.9189L35.0039 72.0848L35.0011 72.086L35.8014 73.9189ZM31.8815 75.2285L31.4224 73.2819L29.4162 73.7551L29.9496 75.7461L31.8815 75.2285ZM31.5123 78.1201L33.34 78.9324L33.3432 78.925L33.3465 78.9176L31.5123 78.1201ZM26.903 81.4248L26.9028 83.4248L26.903 83.4248L26.903 81.4248ZM22.2936 78.1201L24.1143 77.2925L23.5814 76.1201L22.2936 76.1201L22.2936 78.1201ZM22.1715 78.1201L20.3253 78.8893L20.8382 80.1201L22.1715 80.1201L22.1715 78.1201ZM21.8043 75.2236L23.7491 75.6904L23.7561 75.6612L23.7622 75.6319L21.8043 75.2236ZM21.8053 75.2178L23.7623 75.6301L24.1639 73.7237L22.2688 73.2722L21.8053 75.2178ZM17.9342 73.9189L18.7345 72.086L18.7233 72.0812L18.7121 72.0764L17.9342 73.9189ZM16.5875 68.8193L18.3103 69.8352L18.3124 69.8317L16.5875 68.8193ZM16.9801 68.2676L18.5044 69.5624L20.2658 67.4888L17.7611 66.4264L16.9801 68.2676ZM15.2789 67.4727L15.2789 65.4727L14.3647 69.2515L15.2789 67.4727ZM25.1041 36.7549L27.0929 36.9664L27.3281 34.7549L25.1041 34.7549L25.1041 36.7549ZM23.8805 48.2588L21.8917 48.0472L25.5803 49.3127L23.8805 48.2588ZM27.6744 42.1396L29.3742 43.1935L29.375 43.1923L27.6744 42.1396ZM34.0377 31.8594L35.7383 32.912L37.6278 29.8594L34.0377 29.8594L34.0377 31.8594ZM30.774 31.8594L29.0753 30.8038L27.1767 33.8594L30.774 33.8594L30.774 31.8594ZM37.6686 20.7637L39.3673 21.8192L41.266 18.7637L37.6686 18.7637L37.6686 20.7637ZM20.6988 20.7637L20.6988 18.7637L18.8926 18.7637L18.7092 20.5606L20.6988 20.7637ZM19.067 36.7549L17.0773 36.5518L16.8525 38.7549L19.067 38.7549L19.067 36.7549ZM0.056272 26.8418L2.05038 26.6884C1.70409 22.1854 3.19633 18.1441 4.99291 15.0195C6.78609 11.9009 8.81182 9.81995 9.34451 9.28726L7.93029 7.87305L6.51608 6.45883C5.86576 7.10915 3.56706 9.47465 1.52527 13.0257C-0.513124 16.5708 -2.3664 21.4223 -1.93784 26.9951L0.056272 26.8418ZM7.93029 7.87305L9.3445 9.28727C16.5107 2.12116 25.4415 2 26.9401 2L26.9401 -1.17756e-06L26.9401 -2C25.1751 -2 14.8515 -1.87644 6.51609 6.45882L7.93029 7.87305ZM26.9401 -1.17756e-06L26.94 2C28.4301 2.00001 37.325 2.15877 44.4536 9.28727L45.8678 7.87304L47.282 6.45882C38.9913 -1.83174 28.7147 -1.99999 26.9401 -2L26.9401 -1.17756e-06ZM45.8678 7.87304L44.4536 9.28726C44.968 9.80171 46.9925 11.8719 48.7847 14.9889C50.5802 18.1117 52.0717 22.1604 51.7073 26.6811L53.7008 26.8418L55.6943 27.0025C56.1455 21.4065 54.2917 16.542 52.2523 12.9951C50.2096 9.44242 47.9098 7.08659 47.282 6.45883L45.8678 7.87304ZM53.7008 26.8418L51.7067 26.6884C51.6117 27.9228 51.1293 29.4999 50.0407 31.9216C48.9586 34.3286 47.3695 37.3787 45.1965 41.5401L46.9694 42.4658L48.7422 43.3915C50.8934 39.2719 52.5475 36.1009 53.689 33.5616C54.8239 31.0371 55.5451 28.9427 55.6949 26.9952L53.7008 26.8418ZM46.9694 42.4658L45.1917 41.5494C43.4897 44.8507 42.2407 47.268 41.2204 49.0317C40.1748 50.8391 39.4948 51.729 38.9879 52.1579L40.2799 53.6846L41.5719 55.2113C42.656 54.2939 43.6278 52.8582 44.6827 51.0347C45.763 49.1674 47.0632 46.6485 48.747 43.3823L46.9694 42.4658ZM40.2799 53.6846L38.9856 52.1598C35.9179 54.7639 31.4561 56.1515 26.8585 56.1515C22.261 56.1515 17.7992 54.7638 14.7314 52.1598L13.4371 53.6846L12.1429 55.2093C16.0916 58.5611 21.543 60.1515 26.8585 60.1515C32.1741 60.1515 37.6254 58.5611 41.5742 55.2093L40.2799 53.6846ZM13.4371 53.6846L14.729 52.1578C14.2221 51.7289 13.5419 50.8389 12.4961 49.0316C11.4756 47.2681 10.2263 44.8507 8.52438 41.5494L6.7467 42.4658L4.96903 43.3823C6.65296 46.6487 7.9534 49.1676 9.03394 51.035C10.0892 52.8586 11.0612 54.2941 12.1452 55.2113L13.4371 53.6846ZM6.7467 42.4658L8.52497 41.5505C6.37029 37.3643 4.79083 34.3142 3.71202 31.9081C2.627 29.4882 2.14527 27.922 2.05038 26.6884L0.056272 26.8418L-1.93784 26.9952C-1.78797 28.9435 -1.06609 31.0284 0.0621106 33.5446C1.19652 36.0747 2.83989 39.2457 4.96843 43.3811L6.7467 42.4658ZM15.3199 67.4727L16.2347 65.6941C15.6677 65.4025 15.5078 65.0718 15.4549 64.8179C15.3889 64.5017 15.4477 64.0588 15.7123 63.6043C15.9751 63.153 16.3675 62.8208 16.7723 62.6707C17.1333 62.5369 17.5868 62.5121 18.1583 62.806L19.0729 61.0273L19.9875 59.2487C16.6773 57.5465 13.5936 59.2937 12.2556 61.5916C11.582 62.7484 11.2381 64.1921 11.5392 65.6351C11.8534 67.1404 12.8306 68.4414 14.4052 69.2512L15.3199 67.4727ZM19.0729 61.0273L18.1602 62.807C23.5085 65.5497 30.2636 65.5461 35.6444 62.8101L34.7379 61.0273L33.8314 59.2446C29.5849 61.4038 24.183 61.4003 19.9855 59.2477L19.0729 61.0273ZM34.7379 61.0273L35.6595 62.8024C36.2157 62.5136 36.6603 62.5366 37.02 62.6702C37.4244 62.8204 37.8196 63.1541 38.0856 63.6084C38.3534 64.0658 38.4134 64.5099 38.3488 64.8247C38.2974 65.0755 38.1412 65.4035 37.5761 65.6941L38.4908 67.4727L39.4055 69.2512C40.9822 68.4404 41.958 67.1366 42.2673 65.6283C42.5635 64.1839 42.2131 62.7413 41.5375 61.5875C40.2 59.3028 37.1166 57.5388 33.8163 59.2523L34.7379 61.0273ZM38.4908 67.4727L37.5725 65.6959C37.0567 65.9626 36.5283 66.2085 35.9892 66.4375L36.7711 68.2783L37.553 70.1191C38.1749 69.855 38.7951 69.5668 39.4091 69.2494L38.4908 67.4727ZM36.7711 68.2783L35.2339 69.5577C35.3007 69.638 35.3608 69.7232 35.4139 69.8156L37.1481 68.8193L38.8823 67.8231C38.7069 67.5178 38.5126 67.2443 38.3084 66.9989L36.7711 68.2783ZM37.1481 68.8193L35.4061 69.8019C35.5836 70.1166 35.6837 70.675 35.5616 71.2301C35.4435 71.7672 35.1962 72.0012 35.0039 72.0848L35.8014 73.9189L36.5988 75.7531C38.283 75.0208 39.1578 73.5006 39.4682 72.0895C39.7747 70.6965 39.6099 69.113 38.8901 67.8368L37.1481 68.8193ZM35.8014 73.9189L35.0011 72.086C33.8241 72.5999 32.6278 72.9976 31.4224 73.2819L31.8815 75.2285L32.3406 77.1751C33.7822 76.8351 35.2067 76.3609 36.6016 75.7519L35.8014 73.9189ZM31.8815 75.2285L29.9496 75.7461C30.0608 76.1611 30.0148 76.5483 29.6782 77.3227L31.5123 78.1201L33.3465 78.9176C33.8245 77.8181 34.2694 76.4132 33.8133 74.7109L31.8815 75.2285ZM31.5123 78.1201L29.6847 77.3078C29.094 78.6369 27.9814 79.4248 26.903 79.4248L26.903 81.4248L26.903 83.4248C29.9855 83.4248 32.2989 81.2748 33.34 78.9324L31.5123 78.1201ZM26.903 81.4248L26.9031 79.4248C25.841 79.4247 24.7151 78.6143 24.1143 77.2925L22.2936 78.1201L20.4728 78.9477C21.5037 81.2157 23.8041 83.4246 26.9028 83.4248L26.903 81.4248ZM22.2936 78.1201L22.2936 76.1201L22.1715 76.1201L22.1715 78.1201L22.1715 80.1201L22.2936 80.1201L22.2936 78.1201ZM22.1715 78.1201L24.0177 77.3509C23.6894 76.5631 23.644 76.1283 23.7491 75.6904L21.8043 75.2236L19.8595 74.7569C19.4751 76.3586 19.8378 77.7191 20.3253 78.8893L22.1715 78.1201ZM21.8043 75.2236L23.7622 75.6319C23.7664 75.6116 23.7699 75.5935 23.7726 75.5782C23.7754 75.563 23.7776 75.5499 23.7792 75.5398C23.7808 75.5297 23.7821 75.5215 23.7828 75.5165C23.7832 75.514 23.7835 75.5119 23.7837 75.5107C23.7838 75.51 23.7838 75.5095 23.7839 75.5092C23.7839 75.509 23.7839 75.5089 23.784 75.5088C23.784 75.5087 23.784 75.5087 23.784 75.5087C23.784 75.5086 23.784 75.5087 23.784 75.5086C23.7841 75.508 23.7835 75.5116 23.7829 75.5161C23.7822 75.5209 23.7809 75.5289 23.7793 75.5388C23.7777 75.5488 23.7755 75.5618 23.7728 75.5769C23.77 75.592 23.7666 75.6099 23.7623 75.6301L21.8053 75.2178L19.8483 74.8055C19.8439 74.8261 19.8404 74.8445 19.8375 74.8601C19.8347 74.8757 19.8324 74.8891 19.8307 74.8996C19.829 74.9101 19.8278 74.9186 19.827 74.9239C19.8265 74.9266 19.8262 74.9288 19.826 74.9302C19.8258 74.9316 19.8257 74.9327 19.8256 74.9328C19.8255 74.9339 19.826 74.9304 19.8266 74.9263C19.8273 74.9219 19.8284 74.9142 19.83 74.9046C19.8315 74.8949 19.8336 74.8823 19.8363 74.8676C19.839 74.8528 19.8423 74.8352 19.8464 74.8154L21.8043 75.2236ZM21.8053 75.2178L22.2688 73.2722C21.0791 72.9888 19.8978 72.594 18.7345 72.086L17.9342 73.9189L17.134 75.7519C18.5111 76.3531 19.9175 76.824 21.3418 77.1633L21.8053 75.2178ZM17.9342 73.9189L18.7121 72.0764C18.5576 72.0112 18.2983 71.7873 18.1701 71.2282C18.0399 70.6603 18.1433 70.1184 18.3103 69.8352L16.5875 68.8193L14.8647 67.8035C14.0936 69.1113 13.9525 70.7317 14.2713 72.122C14.592 73.5212 15.4752 75.0516 17.1563 75.7614L17.9342 73.9189ZM16.5875 68.8193L18.3124 69.8317C18.3687 69.7357 18.4328 69.6467 18.5044 69.5624L16.9801 68.2676L15.4558 66.9728C15.2451 67.2208 15.0442 67.4977 14.8627 67.8069L16.5875 68.8193ZM16.9801 68.2676L17.7611 66.4264C17.2291 66.2007 16.7057 65.9573 16.1932 65.6938L15.2789 67.4727L14.3647 69.2515C14.9707 69.5629 15.5835 69.8476 16.1991 70.1088L16.9801 68.2676ZM15.2789 67.4727L15.2789 69.4727L15.3199 69.4727L15.3199 67.4727L15.3199 65.4727L15.2789 65.4727L15.2789 67.4727ZM25.1041 36.7549L23.1153 36.5433L21.8917 48.0472L23.8805 48.2588L25.8693 48.4703L27.0929 36.9664L25.1041 36.7549ZM23.8805 48.2588L25.5803 49.3127L29.3742 43.1935L27.6744 42.1396L25.9746 41.0858L22.1807 47.2049L23.8805 48.2588ZM27.6744 42.1396L29.375 43.1923L35.7383 32.912L34.0377 31.8594L32.3371 30.8067L25.9739 41.087L27.6744 42.1396ZM34.0377 31.8594L34.0377 29.8594L30.774 29.8594L30.774 31.8594L30.774 33.8594L34.0377 33.8594L34.0377 31.8594ZM30.774 31.8594L32.4728 32.9149L39.3673 21.8192L37.6686 20.7637L35.9698 19.7081L29.0753 30.8038L30.774 31.8594ZM37.6686 20.7637L37.6686 18.7637L20.6988 18.7637L20.6988 20.7637L20.6988 22.7637L37.6686 22.7637L37.6686 20.7637ZM20.6988 20.7637L18.7092 20.5606L17.0773 36.5518L19.067 36.7549L21.0567 36.9579L22.6885 20.9667L20.6988 20.7637ZM19.067 36.7549L19.067 38.7549L25.1041 38.7549L25.1041 36.7549L25.1041 34.7549L19.067 34.7549L19.067 36.7549Z" fill="url(#paint0_linear_1_77)" mask="url(#path-1-inside-1_1_77)"/>
<defs>
<linearGradient id="paint0_linear_1_77" x1="15.7993" y1="25.5216" x2="69.4528" y2="78.8962" gradientUnits="userSpaceOnUse">
<stop stop-color="#FA9DA8"/>
<stop offset="1" stop-color="#FF2F54" stop-opacity="0"/>
</linearGradient>
</defs>
</svg>
