<svg width="122" height="93" viewBox="0 0 122 93" fill="none" xmlns="http://www.w3.org/2000/svg">
<g filter="url(#filter0_d_1_59)">
<mask id="path-1-inside-1_1_59" fill="white">
<path d="M84.2806 0C85.9347 -7.23024e-08 87.5333 0.912065 88.389 2.33789C89.2447 3.76398 89.3019 5.59011 88.5033 7.07324L79.2035 24.4717L83.8832 32.5146C86.0506 31.7732 88.2747 31.4307 90.6703 31.4307V31.4883C102.992 31.4883 113.032 41.5273 113.032 53.8486C113.032 66.17 102.992 76.2109 90.6703 76.2109C78.349 76.2108 68.3099 66.1699 68.3099 53.8486C68.31 47.2887 71.1057 41.4714 75.555 37.3643L70.9339 29.377H46.348L43.6097 35.6523C49.1999 39.7024 52.9076 46.3193 52.9076 53.792C52.9074 66.1132 42.8675 76.1533 30.5462 76.1533C18.2251 76.1532 8.18608 66.1132 8.1859 53.792C8.1859 41.4707 18.225 31.4308 30.5462 31.4307C32.0293 31.4307 33.4556 31.5459 34.8246 31.8311L38.7601 22.6465C39.5587 20.8782 41.269 19.7374 43.2084 19.7373H70.8197L76.2367 9.58301H68.9925C66.3685 9.58301 64.2015 7.41599 64.2015 4.79199C64.2016 2.16806 66.3116 1.1719e-07 68.9925 0H84.2806ZM30.5462 49.8564C28.3217 49.8566 26.6107 51.6244 26.6107 53.792C26.6109 55.9594 28.3788 57.7284 30.5462 57.7285C32.7138 57.7285 34.4816 55.9595 34.4818 53.792C34.4818 51.6243 32.7709 49.8564 30.5462 49.8564ZM90.6703 49.8564C88.4457 49.8566 86.7347 51.6244 86.7347 53.792C86.7349 55.9594 88.5029 57.7283 90.6703 57.7285C92.8378 57.7285 94.6056 55.9595 94.6058 53.792C94.6058 51.6243 92.895 49.8564 90.6703 49.8564ZM44.9203 5.07617C47.6012 5.07629 49.7112 7.2443 49.7113 9.86816C49.7113 12.4921 47.5442 14.66 44.9203 14.6602H30.6009C27.9199 14.6602 25.8099 12.4922 25.8099 9.86816C25.81 7.24423 27.977 5.07617 30.6009 5.07617H44.9203Z"/>
</mask>
<path d="M84.2806 0V2V0ZM88.389 2.33789L90.104 1.3089L90.1039 1.3087L88.389 2.33789ZM88.5033 7.07324L86.7423 6.12504L86.7394 6.13044L88.5033 7.07324ZM79.2035 24.4717L77.4396 23.5289L76.9136 24.513L77.4748 25.4775L79.2035 24.4717ZM83.8832 32.5146L82.1545 33.5205L82.9791 34.9377L84.5305 34.407L83.8832 32.5146ZM90.6703 31.4307H92.6703V29.4306L90.6702 29.4307L90.6703 31.4307ZM90.6703 31.4883H88.6703V33.4883H90.6703V31.4883ZM113.032 53.8486H115.032V53.8486L113.032 53.8486ZM90.6703 76.2109L90.6702 78.2109H90.6703V76.2109ZM68.3099 53.8486L66.3099 53.8486V53.8486H68.3099ZM75.555 37.3643L76.9116 38.8339L78.0878 37.7482L77.2862 36.3627L75.555 37.3643ZM70.9339 29.377L72.6651 28.3754L72.0874 27.377H70.9339V29.377ZM46.348 29.377V27.377H45.0386L44.5149 28.5771L46.348 29.377ZM43.6097 35.6523L41.7766 34.8525L41.1329 36.3277L42.4363 37.2719L43.6097 35.6523ZM52.9076 53.792L54.9076 53.792V53.792H52.9076ZM30.5462 76.1533L30.5462 78.1533H30.5462V76.1533ZM8.1859 53.792H6.1859V53.792L8.1859 53.792ZM30.5462 31.4307V29.4307H30.5462L30.5462 31.4307ZM34.8246 31.8311L34.4167 33.789L36.0185 34.1227L36.6629 32.6188L34.8246 31.8311ZM38.7601 22.6465L36.9374 21.8233L36.9294 21.841L36.9218 21.8588L38.7601 22.6465ZM43.2084 19.7373V17.7373H43.2083L43.2084 19.7373ZM70.8197 19.7373V21.7373H72.0195L72.5843 20.6787L70.8197 19.7373ZM76.2367 9.58301L78.0013 10.5244L79.5704 7.58301H76.2367V9.58301ZM68.9925 9.58301V7.58301V9.58301ZM64.2015 4.79199L62.2015 4.79193V4.79199H64.2015ZM68.9925 0V-2V0ZM30.5462 49.8564V47.8564H30.5461L30.5462 49.8564ZM26.6107 53.792H24.6107V53.7922L26.6107 53.792ZM30.5462 57.7285L30.5461 59.7285H30.5462V57.7285ZM34.4818 53.792L36.4818 53.7922V53.792H34.4818ZM90.6703 49.8564V47.8564H90.6701L90.6703 49.8564ZM86.7347 53.792H84.7347V53.7922L86.7347 53.792ZM90.6703 57.7285L90.6701 59.7285H90.6703V57.7285ZM94.6058 53.792L96.6058 53.7922V53.792H94.6058ZM44.9203 5.07617L44.9204 3.07617H44.9203V5.07617ZM49.7113 9.86816H51.7113V9.8681L49.7113 9.86816ZM44.9203 14.6602V16.6602H44.9204L44.9203 14.6602ZM30.6009 14.6602V12.6602V14.6602ZM25.8099 9.86816L23.8099 9.8681V9.86816H25.8099ZM30.6009 5.07617V3.07617V5.07617ZM84.2806 0V2C85.2245 2 86.1759 2.53687 86.6742 3.36708L88.389 2.33789L90.1039 1.3087C88.8907 -0.712742 86.6449 -2 84.2806 -2V0ZM88.389 2.33789L86.674 3.36688C87.1713 4.19574 87.2023 5.27075 86.7423 6.12504L88.5033 7.07324L90.2642 8.02144C91.4014 5.90947 91.318 3.33222 90.104 1.3089L88.389 2.33789ZM88.5033 7.07324L86.7394 6.13044L77.4396 23.5289L79.2035 24.4717L80.9673 25.4145L90.2671 8.01605L88.5033 7.07324ZM79.2035 24.4717L77.4748 25.4775L82.1545 33.5205L83.8832 32.5146L85.6118 31.5088L80.9322 23.4659L79.2035 24.4717ZM83.8832 32.5146L84.5305 34.407C86.4701 33.7435 88.4733 33.4307 90.6703 33.4307L90.6703 31.4307L90.6702 29.4307C88.076 29.4307 85.6312 29.8029 83.2358 30.6223L83.8832 32.5146ZM90.6703 31.4307H88.6703V31.4883H90.6703H92.6703V31.4307H90.6703ZM90.6703 31.4883V33.4883C101.887 33.4883 111.032 42.632 111.032 53.8486L113.032 53.8486L115.032 53.8486C115.032 40.4226 104.096 29.4883 90.6703 29.4883V31.4883ZM113.032 53.8486H111.032C111.032 65.0656 101.887 74.2109 90.6703 74.2109V76.2109V78.2109C104.096 78.2109 115.032 67.2745 115.032 53.8486H113.032ZM90.6703 76.2109L90.6703 74.2109C79.4538 74.2108 70.3099 65.0656 70.3099 53.8486H68.3099H66.3099C66.3099 67.2743 77.2442 78.2107 90.6702 78.2109L90.6703 76.2109ZM68.3099 53.8486L70.3099 53.8486C70.31 47.8767 72.85 42.583 76.9116 38.8339L75.555 37.3643L74.1985 35.8947C69.3614 40.3597 66.31 46.7007 66.3099 53.8486L68.3099 53.8486ZM75.555 37.3643L77.2862 36.3627L72.6651 28.3754L70.9339 29.377L69.2028 30.3785L73.8239 38.3658L75.555 37.3643ZM70.9339 29.377V27.377H46.348V29.377V31.377H70.9339V29.377ZM46.348 29.377L44.5149 28.5771L41.7766 34.8525L43.6097 35.6523L45.4428 36.4522L48.1811 30.1768L46.348 29.377ZM43.6097 35.6523L42.4363 37.2719C47.5363 40.9669 50.9076 46.9954 50.9076 53.792H52.9076H54.9076C54.9076 45.6433 50.8636 38.438 44.7831 34.0327L43.6097 35.6523ZM52.9076 53.792L50.9076 53.792C50.9074 65.0087 41.7629 74.1533 30.5462 74.1533V76.1533V78.1533C43.9721 78.1533 54.9074 67.2178 54.9076 53.792L52.9076 53.792ZM30.5462 76.1533L30.5463 74.1533C19.3298 74.1532 10.1861 65.0087 10.1859 53.792L8.1859 53.792L6.1859 53.792C6.1861 67.2176 17.1204 78.1532 30.5462 78.1533L30.5462 76.1533ZM8.1859 53.792H10.1859C10.1859 42.5752 19.3296 33.4308 30.5463 33.4307L30.5462 31.4307L30.5462 29.4307C17.1203 29.4308 6.1859 40.3662 6.1859 53.792H8.1859ZM30.5462 31.4307V33.4307C31.928 33.4307 33.2128 33.5382 34.4167 33.789L34.8246 31.8311L35.2325 29.8731C33.6983 29.5535 32.1307 29.4307 30.5462 29.4307V31.4307ZM34.8246 31.8311L36.6629 32.6188L40.5985 23.4342L38.7601 22.6465L36.9218 21.8588L32.9862 31.0433L34.8246 31.8311ZM38.7601 22.6465L40.5829 23.4697C41.069 22.3933 42.0816 21.7374 43.2085 21.7373L43.2084 19.7373L43.2083 17.7373C40.4564 17.7374 38.0484 19.3631 36.9374 21.8233L38.7601 22.6465ZM43.2084 19.7373V21.7373H70.8197V19.7373V17.7373H43.2084V19.7373ZM70.8197 19.7373L72.5843 20.6787L78.0013 10.5244L76.2367 9.58301L74.4721 8.64165L69.0551 18.7959L70.8197 19.7373ZM76.2367 9.58301V7.58301H68.9925V9.58301V11.583H76.2367V9.58301ZM68.9925 9.58301V7.58301C67.4731 7.58301 66.2015 6.31142 66.2015 4.79199H64.2015H62.2015C62.2015 8.52056 65.264 11.583 68.9925 11.583V9.58301ZM64.2015 4.79199L66.2015 4.79206C66.2016 3.2565 67.4322 2 68.9925 2V0V-2C65.1909 -2 62.2016 1.07963 62.2015 4.79193L64.2015 4.79199ZM68.9925 0V2H84.2806V0V-2H68.9925V0ZM30.5462 49.8564L30.5461 47.8564C27.1983 47.8567 24.6107 50.5387 24.6107 53.792H26.6107H28.6107C28.6107 52.7101 29.4451 51.8565 30.5464 51.8564L30.5462 49.8564ZM26.6107 53.792L24.6107 53.7922C24.611 57.0633 27.2735 59.7283 30.5461 59.7285L30.5462 57.7285L30.5464 55.7285C29.4841 55.7284 28.6108 54.8555 28.6107 53.7918L26.6107 53.792ZM30.5462 57.7285V59.7285C33.8192 59.7285 36.4815 57.0633 36.4818 53.7922L34.4818 53.792L32.4818 53.7918C32.4817 54.8557 31.6084 55.7285 30.5462 55.7285V57.7285ZM34.4818 53.792H36.4818C36.4818 50.5388 33.8944 47.8564 30.5462 47.8564V49.8564V51.8564C31.6475 51.8564 32.4818 52.7099 32.4818 53.792H34.4818ZM90.6703 49.8564L90.6701 47.8564C87.3224 47.8567 84.7347 50.5387 84.7347 53.792H86.7347H88.7347C88.7347 52.7102 89.5691 51.8565 90.6704 51.8564L90.6703 49.8564ZM86.7347 53.792L84.7347 53.7922C84.735 57.0633 87.3976 59.7282 90.6701 59.7285L90.6703 57.7285L90.6704 55.7285C89.6081 55.7284 88.7348 54.8554 88.7347 53.7918L86.7347 53.792ZM90.6703 57.7285V59.7285C93.9432 59.7285 96.6055 57.0633 96.6058 53.7922L94.6058 53.792L92.6058 53.7918C92.6057 54.8557 91.7324 55.7285 90.6703 55.7285V57.7285ZM94.6058 53.792H96.6058C96.6058 50.5388 94.0184 47.8564 90.6703 47.8564V49.8564V51.8564C91.7715 51.8564 92.6058 52.7099 92.6058 53.792H94.6058ZM44.9203 5.07617L44.9202 7.07617C46.4806 7.07624 47.7112 8.33283 47.7113 9.86822L49.7113 9.86816L51.7113 9.8681C51.7112 6.15577 48.7217 3.07634 44.9204 3.07617L44.9203 5.07617ZM49.7113 9.86816H47.7113C47.7113 11.388 46.4391 12.6601 44.9202 12.6602L44.9203 14.6602L44.9204 16.6602C48.6492 16.66 51.7113 13.5962 51.7113 9.86816H49.7113ZM44.9203 14.6602V12.6602H30.6009V14.6602V16.6602H44.9203V14.6602ZM30.6009 14.6602V12.6602C29.0405 12.6602 27.8099 11.4037 27.8099 9.86816H25.8099H23.8099C23.8099 13.5807 26.7993 16.6602 30.6009 16.6602V14.6602ZM25.8099 9.86816L27.8099 9.86823C27.81 8.34822 29.0821 7.07617 30.6009 7.07617V5.07617V3.07617C26.8718 3.07617 23.81 6.14023 23.8099 9.8681L25.8099 9.86816ZM30.6009 5.07617V7.07617H44.9203V5.07617V3.07617H30.6009V5.07617Z" fill="url(#paint0_linear_1_59)" mask="url(#path-1-inside-1_1_59)"/>
</g>
<defs>
<filter id="filter0_d_1_59" x="7.62939e-06" y="0" width="121.217" height="92.5827" filterUnits="userSpaceOnUse" color-interpolation-filters="sRGB">
<feFlood flood-opacity="0" result="BackgroundImageFix"/>
<feColorMatrix in="SourceAlpha" type="matrix" values="0 0 0 0 0 0 0 0 0 0 0 0 0 0 0 0 0 0 127 0" result="hardAlpha"/>
<feOffset dy="8.18589"/>
<feGaussianBlur stdDeviation="4.09295"/>
<feComposite in2="hardAlpha" operator="out"/>
<feColorMatrix type="matrix" values="0 0 0 0 0 0 0 0 0 0 0 0 0 0 0 0 0 0 0.25 0"/>
<feBlend mode="normal" in2="BackgroundImageFix" result="effect1_dropShadow_1_59"/>
<feBlend mode="normal" in="SourceGraphic" in2="effect1_dropShadow_1_59" result="shape"/>
</filter>
<linearGradient id="paint0_linear_1_59" x1="37.1889" y1="12.5001" x2="69.8432" y2="99.788" gradientUnits="userSpaceOnUse">
<stop stop-color="#9DCEFA"/>
<stop offset="1" stop-color="#2F5BFF" stop-opacity="0.19"/>
</linearGradient>
</defs>
</svg>
