<svg width="113" height="68" viewBox="0 0 113 68" fill="none" xmlns="http://www.w3.org/2000/svg">
<mask id="path-1-inside-1_1_71" fill="white">
<path d="M27.0186 0C31.1701 0.000252755 34.539 3.36991 34.5391 7.52148V60.1709C34.5391 64.3225 31.1701 67.6921 27.0186 67.6924H12.3369C8.18513 67.6924 4.81543 64.3227 4.81543 60.1709V53.9736C2.16792 53.9736 1.15727e-07 51.8067 0 49.1592V18.5918C0.000153896 15.9444 2.16801 13.7793 4.81543 13.7793V7.52148C4.81549 3.36975 8.18517 1.81479e-07 12.3369 0H27.0186ZM99.8857 0C104.037 0.000119059 107.407 3.36982 107.407 7.52148V13.7793C110.054 13.7795 112.22 15.9445 112.22 18.5918V49.1592C112.22 51.8066 110.055 53.9734 107.407 53.9736V60.1709C107.407 64.3226 104.037 67.6923 99.8857 67.6924H85.1426C80.9908 67.6924 77.6211 64.3227 77.6211 60.1709V41.3369H40.4375V26.1738H77.6211V7.52148C77.6212 3.36975 80.9908 1.81479e-07 85.1426 0H99.8857Z"/>
</mask>
<path d="M27.0186 0L27.0187 -2H27.0186V0ZM34.5391 7.52148H36.5391V7.52146L34.5391 7.52148ZM34.5391 60.1709H32.5391H34.5391ZM27.0186 67.6924V69.6924H27.0187L27.0186 67.6924ZM12.3369 67.6924V65.6924V67.6924ZM4.81543 60.1709H2.81543H4.81543ZM4.81543 53.9736H6.81543V51.9736H4.81543V53.9736ZM0 49.1592H-2H0ZM0 18.5918L-2 18.5917V18.5918H0ZM4.81543 13.7793V15.7793H6.81543V13.7793H4.81543ZM4.81543 7.52148L2.81543 7.52146V7.52148H4.81543ZM12.3369 0V-2V0ZM99.8857 0L99.8858 -2H99.8857V0ZM107.407 7.52148H109.407V7.52146L107.407 7.52148ZM107.407 13.7793H105.407V15.7792L107.407 15.7793L107.407 13.7793ZM112.22 18.5918H114.22V18.5917L112.22 18.5918ZM112.22 49.1592H110.22H112.22ZM107.407 53.9736L107.407 51.9736L105.407 51.9738V53.9736H107.407ZM107.407 60.1709H105.407H107.407ZM99.8857 67.6924V69.6924H99.8858L99.8857 67.6924ZM85.1426 67.6924V65.6924V67.6924ZM77.6211 60.1709H75.6211H77.6211ZM77.6211 41.3369H79.6211V39.3369H77.6211V41.3369ZM40.4375 41.3369H38.4375V43.3369H40.4375V41.3369ZM40.4375 26.1738V24.1738H38.4375V26.1738H40.4375ZM77.6211 26.1738V28.1738H79.6211V26.1738H77.6211ZM77.6211 7.52148L75.6211 7.52146V7.52148H77.6211ZM85.1426 0V-2V0ZM27.0186 0L27.0184 2C30.0652 2.00019 32.539 4.47424 32.5391 7.52151L34.5391 7.52148L36.5391 7.52146C36.539 2.26557 32.2749 -1.99968 27.0187 -2L27.0186 0ZM34.5391 7.52148H32.5391V60.1709H34.5391H36.5391V7.52148H34.5391ZM34.5391 60.1709H32.5391C32.5391 63.2182 30.0653 65.6922 27.0184 65.6924L27.0186 67.6924L27.0187 69.6924C32.2749 69.6921 36.5391 65.4269 36.5391 60.1709H34.5391ZM27.0186 67.6924V65.6924H12.3369V67.6924V69.6924H27.0186V67.6924ZM12.3369 67.6924V65.6924C9.2897 65.6924 6.81543 63.2181 6.81543 60.1709H4.81543H2.81543C2.81543 65.4273 7.08056 69.6924 12.3369 69.6924V67.6924ZM4.81543 60.1709H6.81543V53.9736H4.81543H2.81543V60.1709H4.81543ZM4.81543 53.9736V51.9736C3.27196 51.9736 2 50.7016 2 49.1592H0H-2C-2 52.9118 1.06387 55.9736 4.81543 55.9736V53.9736ZM0 49.1592H2V18.5918H0H-2V49.1592H0ZM0 18.5918L2 18.5919C2.00009 17.0505 3.27111 15.7793 4.81543 15.7793V13.7793V11.7793C1.06491 11.7793 -1.99978 14.8383 -2 18.5917L0 18.5918ZM4.81543 13.7793H6.81543V7.52148H4.81543H2.81543V13.7793H4.81543ZM4.81543 7.52148L6.81543 7.52151C6.81547 4.4743 9.28976 2 12.3369 2V0V-2C7.08057 -2 2.8155 2.2652 2.81543 7.52146L4.81543 7.52148ZM12.3369 0V2H27.0186V0V-2H12.3369V0ZM99.8857 0L99.8857 2C102.933 2.00009 105.407 4.47443 105.407 7.52151L107.407 7.52148L109.407 7.52146C109.407 2.26522 105.142 -1.99985 99.8858 -2L99.8857 0ZM107.407 7.52148H105.407V13.7793H107.407H109.407V7.52148H107.407ZM107.407 13.7793L107.407 15.7793C108.95 15.7794 110.22 17.0492 110.22 18.5919L112.22 18.5918L114.22 18.5917C114.22 14.8399 111.159 11.7796 107.407 11.7793L107.407 13.7793ZM112.22 18.5918H110.22V49.1592H112.22H114.22V18.5918H112.22ZM112.22 49.1592H110.22C110.22 50.7029 108.949 51.9735 107.407 51.9736L107.407 53.9736L107.407 55.9736C111.16 55.9734 114.22 52.9102 114.22 49.1592H112.22ZM107.407 53.9736H105.407V60.1709H107.407H109.407V53.9736H107.407ZM107.407 60.1709H105.407C105.407 63.218 102.933 65.6923 99.8857 65.6924L99.8857 67.6924L99.8858 69.6924C105.142 69.6922 109.407 65.4272 109.407 60.1709H107.407ZM99.8857 67.6924V65.6924H85.1426V67.6924V69.6924H99.8857V67.6924ZM85.1426 67.6924V65.6924C82.0954 65.6924 79.6211 63.2181 79.6211 60.1709H77.6211H75.6211C75.6211 65.4273 79.8862 69.6924 85.1426 69.6924V67.6924ZM77.6211 60.1709H79.6211V41.3369H77.6211H75.6211V60.1709H77.6211ZM77.6211 41.3369V39.3369H40.4375V41.3369V43.3369H77.6211V41.3369ZM40.4375 41.3369H42.4375V26.1738H40.4375H38.4375V41.3369H40.4375ZM40.4375 26.1738V28.1738H77.6211V26.1738V24.1738H40.4375V26.1738ZM77.6211 26.1738H79.6211V7.52148H77.6211H75.6211V26.1738H77.6211ZM77.6211 7.52148L79.6211 7.52151C79.6211 4.4743 82.0954 2 85.1426 2V0V-2C79.8862 -2 75.6212 2.2652 75.6211 7.52146L77.6211 7.52148ZM85.1426 0V2H99.8857V0V-2H85.1426V0Z" fill="url(#paint0_linear_1_71)" mask="url(#path-1-inside-1_1_71)"/>
<defs>
<linearGradient id="paint0_linear_1_71" x1="59.0003" y1="34.316" x2="93.7399" y2="99.5333" gradientUnits="userSpaceOnUse">
<stop stop-color="#E3EBAB" stop-opacity="0.71"/>
<stop offset="1" stop-color="#8FF300" stop-opacity="0"/>
</linearGradient>
</defs>
</svg>
