<svg width="86" height="86" viewBox="0 0 86 86" fill="none" xmlns="http://www.w3.org/2000/svg">
<path d="M1.01855 51.8477C0.881371 49.5057 1.49373 47.1065 2.66797 45.1338L2.66992 45.1309C3.88781 43.0699 5.72187 41.4641 7.90722 40.4189L9.2334 39.7852L8.15625 38.7842C6.88258 37.6015 6.00622 36.0454 5.58886 34.2832L5.58594 34.2676L5.58203 34.2529C5.12726 32.5703 5.21213 30.8204 5.72949 29.0801C6.23175 27.3907 7.24159 25.9111 8.55078 24.7422L8.55176 24.7402C9.89418 23.5367 11.5054 22.7576 13.248 22.4824L14.3271 22.3115L14.0625 21.252C13.745 19.9821 13.7403 18.6986 13.9736 17.3877L13.9736 17.3867C14.2018 16.155 14.706 14.953 15.4043 13.8799L15.4053 13.8799C16.1509 12.7615 17.0758 11.8395 18.1309 11.1514L18.1396 11.1455C19.2716 10.3909 20.4085 9.89911 21.6572 9.7207L22.3662 9.61914L22.499 8.91504C22.9175 6.68303 24.0784 4.65061 25.8252 3.22558L25.835 3.2168C27.5399 1.78835 29.7602 0.999999 31.9814 0.999999C33.2429 1.00002 34.5333 1.23402 35.6641 1.73144C36.8562 2.256 37.9708 2.9581 38.833 3.82031L38.833 3.82129C39.6896 4.67795 40.3865 5.78338 40.9102 6.96777C41.3778 8.14004 41.6533 9.38799 41.6533 10.6699L43.6533 10.6699C43.6533 8.24314 44.5444 5.9757 46.1523 4.16699L46.4834 3.81152C48.2866 2.01314 50.7356 1.00002 53.2734 0.999998C55.5851 0.999998 57.7072 1.78113 59.4717 3.21679C61.1848 4.65212 62.3922 6.69413 62.8086 8.91504L62.9404 9.61914L63.6494 9.7207C64.9077 9.90045 66.0885 10.3957 67.1494 11.1338L67.1611 11.1426L67.1738 11.1514C68.2304 11.8405 69.1478 12.7566 69.834 13.8545L69.8467 13.876L69.8613 13.8955C70.587 14.9387 71.0484 16.1299 71.2812 17.3867L71.2842 17.4014L71.2871 17.415C71.5589 18.6839 71.5191 19.9689 71.2373 21.2842L71.0156 22.3174L72.0586 22.4824C73.8031 22.7579 75.4061 23.537 76.6895 24.7285L76.71 24.7471L76.7305 24.7637C78.0975 25.9029 79.0206 27.3671 79.583 29.0986C80.0894 30.8137 80.1326 32.568 79.7168 34.2773L79.7158 34.2832L79.6318 34.6113C79.1872 36.2391 78.3448 37.6759 77.1514 38.7842L76.0732 39.7852L77.4004 40.4189C79.5768 41.4599 81.3624 43.062 82.585 45.1309L82.5898 45.1396L82.5957 45.1484C83.8077 47.1063 84.377 49.5032 84.2354 51.8633C84.0945 54.2104 83.2499 56.4705 81.7852 58.4102C80.3199 60.2485 78.3444 61.6529 76.1025 62.3535L75.1953 62.6377L75.4316 63.5576C75.8491 65.1812 75.8491 66.8481 75.4316 68.4717C75.0184 70.0783 74.1922 71.5136 73.0713 72.7305C71.9179 73.9279 70.4842 74.8078 68.9082 75.3203C67.2872 75.7803 65.6284 75.8242 64.0137 75.4551L62.9854 75.2197L62.8057 76.2598C62.3907 78.6568 61.0515 80.7843 59.1543 82.2187L59.1426 82.2285L58.7842 82.4932C57.0845 83.6876 55.0072 84.2599 52.8857 84.1885L52.4307 84.1631C50.0284 83.9275 47.8124 82.8171 46.1963 81.0625C44.5794 79.307 43.6533 76.9439 43.6533 74.54L41.6533 74.54L41.6426 74.9902C41.5347 77.2365 40.6247 79.4163 39.1084 81.0625C37.4955 82.8136 35.2303 83.9287 32.8203 84.1641C30.4463 84.3496 28.0451 83.6957 26.165 82.2285L26.1543 82.2197L26.1436 82.2119C24.2116 80.786 22.9177 78.6669 22.501 76.2598L22.3213 75.2197L21.293 75.4551C19.6703 75.826 17.9634 75.777 16.4561 75.3223C14.8245 74.8095 13.3871 73.9274 12.2305 72.7246C11.0773 71.5253 10.293 70.097 9.875 68.4717C9.45753 66.8482 9.45756 65.1811 9.875 63.5576L10.1113 62.6377L9.20508 62.3535C6.94845 61.6483 4.92334 60.2363 3.51855 58.4102C2.05538 56.4724 1.20816 54.2076 1.01855 51.8477ZM33.0205 26.3145L32.9287 27.2129L30.8867 47.2275L30.7744 48.3281L38.3252 48.3281L36.9102 61.6191L38.7539 62.252L43.5039 54.5937L51.4687 41.7275L52.4141 40.2012L48.3301 40.2012L56.0098 27.8418L56.959 26.3145L33.0205 26.3145Z" stroke="url(#paint0_linear_1_65)" stroke-width="2"/>
<defs>
<linearGradient id="paint0_linear_1_65" x1="7.5" y1="12.4485" x2="77.9099" y2="91.2811" gradientUnits="userSpaceOnUse">
<stop stop-color="#FACF9D"/>
<stop offset="1" stop-color="#FF9F2F" stop-opacity="0"/>
</linearGradient>
</defs>
</svg>
